<svg width="268" height="310" viewBox="0 0 268 310" fill="none" xmlns="http://www.w3.org/2000/svg">
<path d="M98.0978 26.18C98.3821 26.2263 98.3821 26.2263 98.6722 26.2734C105.81 27.4683 112.669 30.8734 118.802 34.6034C119.807 35.2048 120.829 35.7756 121.848 36.3519C123.841 37.483 125.808 38.6513 127.77 39.8363C129.721 41.0146 131.682 42.1605 133.681 43.255C135.866 44.4559 138.004 45.7377 140.146 47.0128C145.288 50.0713 150.446 53.1026 155.646 56.0607C157.498 57.1168 159.333 58.2003 161.166 59.2882C162.362 59.997 163.56 60.6986 164.77 61.3832C166.455 62.3394 168.12 63.3302 169.785 64.3207C172.372 65.8585 174.97 67.3733 177.579 68.8728C179.231 69.8226 180.876 70.7829 182.515 71.7547C183.733 72.4737 184.964 73.1678 186.198 73.8579C193.812 78.1189 193.812 78.1189 196.686 80.6121C197.323 81.1585 197.973 81.6823 198.629 82.2054C200.12 83.4235 201.491 84.7371 202.848 86.1019C202.968 86.2222 203.087 86.3425 203.211 86.4664C205.081 88.3488 206.816 90.2627 208.348 92.43C208.46 92.585 208.572 92.7401 208.687 92.8998C210.428 95.3108 211.957 97.803 213.348 100.43C213.476 100.67 213.476 100.67 213.606 100.914C216.901 107.125 219.049 113.814 220.026 120.773C220.053 120.964 220.079 121.154 220.107 121.351C220.751 126.048 220.774 130.727 220.754 135.46C220.75 136.723 220.753 137.985 220.756 139.247C220.759 141.706 220.756 144.164 220.751 146.623C220.745 149.496 220.745 152.369 220.746 155.243C220.747 160.374 220.742 165.504 220.733 170.635C220.725 175.596 220.721 180.557 220.723 185.518C220.725 191.812 220.723 198.107 220.717 204.401C220.715 206.397 220.715 208.393 220.715 210.388C220.716 212.824 220.713 215.259 220.707 217.694C220.704 218.933 220.703 220.172 220.704 221.411C220.713 229.959 220.164 238.209 217.598 246.43C217.509 246.732 217.42 247.034 217.328 247.345C215.448 253.669 212.919 260.02 209.098 265.43C208.901 265.718 208.705 266.006 208.509 266.294C207.015 268.465 205.358 270.47 203.598 272.43C203.458 272.585 203.319 272.74 203.176 272.9C197.816 278.829 191.732 283.361 184.89 287.454C184.076 287.943 183.265 288.436 182.455 288.93C178.965 291.059 175.46 293.16 171.943 295.243C171.609 295.441 171.275 295.639 170.942 295.836C170.781 295.932 170.62 296.027 170.454 296.125C169.123 296.914 167.797 297.71 166.473 298.508C163.697 300.177 160.908 301.821 158.098 303.43C157.902 303.543 157.705 303.655 157.503 303.771C151.309 307.291 144.245 309.487 137.098 309.68C136.85 309.687 136.603 309.694 136.348 309.701C132.443 309.791 128.688 309.667 124.848 308.93C124.654 308.894 124.46 308.858 124.261 308.82C117.179 307.47 111.015 304.323 104.848 300.68C104.474 300.461 104.099 300.242 103.725 300.023C102.849 299.51 101.975 298.994 101.102 298.478C100.611 298.188 100.119 297.898 99.6271 297.61C98.0036 296.657 96.3818 295.701 94.7638 294.739C92.167 293.195 89.5701 291.654 86.9415 290.164C84.4831 288.771 82.0623 287.317 79.6417 285.859C75.9481 283.634 72.2243 281.46 68.5037 279.28C65.8344 277.717 63.1693 276.146 60.5071 274.57C59.371 273.898 58.2343 273.226 57.0978 272.555C55.743 271.755 54.3884 270.954 53.0343 270.153C52.5919 269.891 52.1495 269.629 51.7071 269.367C51.4864 269.237 51.2657 269.106 51.0383 268.972C49.6954 268.178 48.3505 267.388 47.004 266.601C46.8449 266.508 46.6858 266.415 46.5219 266.319C45.7421 265.863 44.9621 265.407 44.1817 264.952C42.4942 263.966 40.8233 262.957 39.1612 261.928C37.9091 261.161 36.6433 260.418 35.3755 259.677C34.9101 259.405 34.4453 259.132 33.9804 258.859C32.4343 257.953 30.8841 257.055 29.3224 256.176C26.4043 254.529 23.604 252.862 20.9961 250.751C20.637 250.462 20.2706 250.182 19.9034 249.903C16.7351 247.444 13.6894 244.435 11.3478 241.18C11.1189 240.874 10.8901 240.567 10.6612 240.261C7.79192 236.365 5.55309 232.205 3.84776 227.68C3.78458 227.515 3.7214 227.35 3.6563 227.18C1.24232 220.838 0.267603 214.67 0.282594 207.907C0.281837 207.416 0.280862 206.925 0.279694 206.434C0.277143 205.097 0.277659 203.761 0.278733 202.424C0.279353 200.978 0.2771 199.531 0.275231 198.085C0.272053 195.256 0.271593 192.428 0.272179 189.599C0.272626 187.299 0.272181 184.998 0.271119 182.698C0.27097 182.37 0.270822 182.042 0.270669 181.703C0.270442 181.204 0.270219 180.704 0.26999 180.205C0.267885 175.565 0.266794 170.925 0.267838 166.285C0.267877 166.111 0.26792 165.936 0.26796 165.756C0.268162 164.872 0.26837 163.987 0.268586 163.102C0.268629 162.926 0.268672 162.75 0.268716 162.569C0.268802 162.214 0.268887 161.859 0.268975 161.504C0.270314 155.976 0.268333 150.449 0.263718 144.921C0.25853 138.699 0.255857 132.478 0.25686 126.256C0.257337 122.966 0.256726 119.676 0.253182 116.386C0.250196 113.585 0.249866 110.785 0.252885 107.984C0.254351 106.557 0.254646 105.13 0.251633 103.703C0.248901 102.393 0.249714 101.084 0.253197 99.7738C0.253854 99.3034 0.25328 98.8331 0.25126 98.3627C0.233415 93.8926 0.749757 89.5455 1.92589 85.2269C2.00265 84.9404 2.07941 84.6539 2.15849 84.3587C5.24209 73.086 12.6711 63.3148 22.8321 57.4613C26.5245 55.4304 30.4961 54.094 34.5978 53.18C34.8697 53.1151 35.1417 53.0502 35.4219 52.9833C37.8814 52.4342 40.2117 52.3005 42.7228 52.3207C43.0162 52.3216 43.0162 52.3216 43.3156 52.3225C46.6555 52.3383 49.8438 52.64 53.0978 53.43C53.4113 53.5022 53.7249 53.5744 54.048 53.6488C60.2661 55.2553 66.0465 58.4241 71.5206 61.688C72.8373 62.4713 74.1594 63.2454 75.4814 64.0198C75.942 64.2897 76.4024 64.5599 76.8627 64.8301C78.8988 66.0247 80.9417 67.2068 82.9884 68.3832C85.0521 69.5699 87.103 70.7744 89.1407 72.005C90.998 73.1249 92.867 74.2245 94.7384 75.3207C94.8953 75.4126 95.0522 75.5045 95.2138 75.5992C97.27 76.8032 99.3298 78.0006 101.394 79.1915C102.858 80.0378 104.314 80.8964 105.77 81.7582C109.827 84.1603 113.902 86.531 117.988 88.8832C119.782 89.9157 121.57 90.953 123.341 92.0249C124.995 93.0244 126.664 93.9998 128.332 94.9769C128.568 95.115 128.568 95.115 128.808 95.2558C130.693 96.3597 132.579 97.4613 134.466 98.5608C135.201 98.9887 135.934 99.4173 136.668 99.846C137.625 100.405 138.583 100.96 139.543 101.514C143.672 103.907 147.535 106.498 151.098 109.68C151.232 109.799 151.366 109.917 151.504 110.039C161.584 118.992 167.971 131.124 170.785 144.227C170.835 144.455 170.885 144.683 170.936 144.918C171.848 149.367 171.921 153.779 171.916 158.304C171.918 158.961 171.919 159.618 171.92 160.275C171.923 161.865 171.924 163.454 171.923 165.043C171.923 166.337 171.923 167.631 171.924 168.925C171.925 169.11 171.925 169.295 171.925 169.486C171.925 169.863 171.925 170.239 171.926 170.615C171.928 174.134 171.928 177.652 171.926 181.17C171.925 184.377 171.928 187.584 171.933 190.79C171.938 194.097 171.94 197.403 171.939 200.709C171.938 202.56 171.939 204.411 171.942 206.262C171.945 207.837 171.946 209.413 171.943 210.988C171.941 211.79 171.941 212.591 171.944 213.392C171.955 216.955 171.799 220.387 171.189 223.901C171.102 224.406 171.023 224.912 170.945 225.418C170.216 230.017 168.384 234.637 166.098 238.68C166.012 238.836 165.925 238.992 165.836 239.153C163.258 243.784 159.82 247.963 155.598 251.18C155.288 251.425 155.288 251.425 154.972 251.675C150.065 255.428 144.186 257.966 138.098 258.93C137.776 258.986 137.455 259.042 137.124 259.099C132.618 259.781 128.043 259.656 123.598 258.68C123.429 258.645 123.261 258.61 123.087 258.575C117.225 257.352 112.067 254.359 107.001 251.278C105.517 250.376 104.018 249.5 102.518 248.625C99.8405 247.061 97.1732 245.482 94.5168 243.883C92.3562 242.583 90.1887 241.294 88.0196 240.008C85.8499 238.721 83.6811 237.434 81.5196 236.133C74.6407 231.997 67.7209 227.925 60.7598 223.929C55.7756 221.064 52.1176 218.444 50.5196 212.618C49.8411 208.981 50.3739 205.403 52.4132 202.281C54.4595 199.453 57.0757 197.323 60.5538 196.53C67.5806 195.648 72.5421 198.932 78.3478 202.43C78.7416 202.666 79.1355 202.903 79.5294 203.139C80.1158 203.491 80.7021 203.843 81.2881 204.195C83.2934 205.4 85.3047 206.595 87.3165 207.789C87.4896 207.892 87.6628 207.995 87.8411 208.101C89.9875 209.375 92.1356 210.646 94.2853 211.914C97.3801 213.741 100.465 215.585 103.532 217.457C106.632 219.349 109.741 221.215 112.904 223C113.886 223.555 114.854 224.131 115.82 224.713C120.027 227.24 124.477 228.857 129.431 227.711C133.66 226.553 137.459 224.256 139.708 220.405C139.837 220.165 139.965 219.926 140.098 219.68C140.234 219.431 140.37 219.181 140.511 218.924C142.361 215.259 142.46 211.464 142.453 207.451C142.455 206.964 142.457 206.478 142.459 205.991C142.465 204.68 142.465 203.369 142.465 202.058C142.465 200.956 142.467 199.854 142.469 198.752C142.474 196.147 142.475 193.542 142.473 190.937C142.471 188.268 142.477 185.6 142.486 182.931C142.494 180.625 142.497 178.318 142.496 176.012C142.495 174.641 142.497 173.271 142.503 171.9C142.533 164.638 142.287 157.854 139.848 150.93C139.715 150.49 139.715 150.49 139.579 150.041C137.285 142.554 132.921 135.914 127.496 130.34C127.142 129.975 126.792 129.606 126.443 129.237C122.183 124.809 116.789 121.819 111.525 118.761C109.882 117.806 108.247 116.838 106.613 115.868C106.058 115.538 105.502 115.208 104.946 114.878C104.679 114.72 104.412 114.561 104.137 114.398C102.896 113.662 101.653 112.929 100.41 112.196C98.1553 110.864 95.9081 109.52 93.6649 108.169C87.8795 104.686 82.0458 101.283 76.2176 97.8722C75.4589 97.4281 74.7002 96.9838 73.9415 96.5394C73.7916 96.4516 73.6417 96.3638 73.4872 96.2733C71.2955 94.9895 69.1095 93.6964 66.9259 92.3988C63.8991 90.6013 60.8563 88.8333 57.801 87.0847C57.1733 86.7235 56.5486 86.3578 55.9249 85.9896C51.112 83.1696 45.8716 81.7476 40.3475 83.1852C37.7826 83.9355 35.3583 85.2325 33.4523 87.1175C33.0978 87.43 33.0978 87.43 32.5978 87.43C32.5343 87.5728 32.4708 87.7156 32.4054 87.8626C32.062 88.496 31.6514 88.9673 31.1759 89.5082C28.0471 93.3865 27.1904 98.1039 27.2225 102.947C27.2215 103.362 27.2201 103.777 27.2183 104.192C27.2146 105.321 27.2171 106.449 27.2207 107.578C27.2235 108.799 27.2205 110.021 27.2182 111.243C27.2148 113.632 27.2166 116.022 27.2204 118.411C27.2246 121.199 27.2238 123.987 27.2229 126.775C27.2214 131.753 27.225 136.732 27.2311 141.711C27.2371 146.531 27.2389 151.351 27.2363 156.171C27.2334 161.429 27.2329 166.688 27.2365 171.947C27.2369 172.509 27.2373 173.071 27.2377 173.633C27.2379 174.048 27.238 174.048 27.2382 174.471C27.2394 176.409 27.239 178.347 27.2379 180.286C27.2367 182.653 27.2382 185.02 27.2431 187.387C27.2456 188.592 27.2469 189.798 27.2449 191.003C27.2378 195.78 27.2581 200.459 28.0978 205.18C28.1486 205.482 28.1994 205.785 28.2518 206.096C28.3666 206.754 28.4984 207.404 28.6446 208.055C28.697 208.288 28.7493 208.522 28.8033 208.762C30.7055 216.857 34.7525 223.83 40.3478 229.93C40.5234 230.123 40.5234 230.123 40.7026 230.319C43.8201 233.696 47.5438 236.26 51.4905 238.574C52.1265 238.947 52.7602 239.323 53.3937 239.701C56.2504 241.399 59.122 243.071 61.9933 244.744C66.0551 247.112 70.1165 249.48 74.1438 251.906C75.3796 252.65 76.6191 253.388 77.8634 254.118C82.5408 256.862 87.2012 259.634 91.8478 262.43C95.7223 264.761 99.6088 267.072 103.508 269.362C103.778 269.52 103.778 269.52 104.053 269.682C104.404 269.888 104.755 270.094 105.106 270.299C105.907 270.77 106.707 271.244 107.5 271.729C118.985 278.737 131.366 283.03 144.927 279.851C152.69 277.87 159.045 273.847 165.617 269.421C166.384 268.906 167.153 268.394 167.922 267.882C174.891 263.237 180.192 257.99 184.348 250.68C184.489 250.433 184.631 250.185 184.776 249.93C186.421 246.984 187.572 243.936 188.653 240.749C188.813 240.281 188.979 239.815 189.147 239.349C191.735 232.042 192.004 224.072 191.978 216.396C191.976 215.374 191.98 214.352 191.982 213.33C191.987 211.341 191.986 209.352 191.983 207.363C191.981 205.743 191.98 204.124 191.982 202.504C191.982 202.155 191.982 202.155 191.982 201.799C191.982 201.326 191.983 200.853 191.983 200.38C191.986 195.971 191.983 191.562 191.977 187.154C191.973 183.389 191.974 179.624 191.978 175.859C191.984 171.462 191.986 167.065 191.983 162.668C191.982 162.197 191.982 161.727 191.982 161.256C191.981 161.024 191.981 160.793 191.981 160.554C191.98 158.94 191.982 157.326 191.984 155.712C191.987 153.74 191.986 151.768 191.981 149.796C191.978 148.794 191.977 147.792 191.98 146.79C192.025 132.357 188.642 118.34 179.348 106.93C179.188 106.733 179.188 106.733 179.025 106.532C175.806 102.582 172.245 99.1433 168.098 96.18C167.808 95.9703 167.808 95.9703 167.513 95.7564C165.997 94.6734 164.432 93.7155 162.817 92.7894C162.285 92.4821 161.754 92.1748 161.223 91.8675C160.953 91.7122 160.684 91.5569 160.406 91.3968C159.124 90.6566 157.845 89.9106 156.567 89.1644C156.317 89.0192 156.068 88.8739 155.812 88.7243C152.699 86.9074 149.596 85.0729 146.499 83.2279C142.902 81.0865 139.282 78.989 135.644 76.9185C130.568 74.0291 125.519 71.0939 120.518 68.0774C118.156 66.6533 115.774 65.2671 113.382 63.8937C111.376 62.74 109.383 61.5665 107.395 60.3832C105.165 59.0566 102.926 57.7503 100.67 56.4689C99.3472 55.7173 98.0321 54.9545 96.7228 54.18C94.2786 52.7381 91.8263 51.3123 89.3478 49.93C89.1175 49.8016 88.8873 49.6731 88.6501 49.5408C85.0802 47.5672 81.4667 45.9736 77.5978 44.68C77.3782 44.606 77.1586 44.5319 76.9324 44.4555C68.5905 41.7014 56.7275 40.2229 48.3683 43.7367C47.8478 43.93 47.8478 43.93 47.0978 43.68C47.2724 43.5795 47.4471 43.479 47.627 43.3755C51.9471 40.8893 51.9471 40.8893 56.2491 38.3722C58.5067 37.0402 60.7712 35.72 63.0371 34.4021C63.5873 34.0817 64.1372 33.7608 64.6868 33.4394C73.4091 28.3394 73.4091 28.3394 77.8478 26.93C78.0663 26.8588 78.2848 26.7876 78.5099 26.7142C84.8574 24.8099 91.6319 25.0601 98.0978 26.18Z" fill="#2E7D32"/>
<path d="M141.598 1.18003C141.888 1.22869 142.179 1.27735 142.479 1.32749C147.078 2.15614 151.366 3.72609 155.598 5.68003C155.856 5.79877 155.856 5.79877 156.12 5.9199C158.575 7.06056 160.899 8.41728 163.228 9.79105C165.046 10.8627 166.878 11.9048 168.723 12.93C171.277 14.3519 173.805 15.8127 176.327 17.2904C181.773 20.4812 187.26 23.6026 192.745 26.7259C195.282 28.1715 197.808 29.6349 200.328 31.1098C202.27 32.2446 204.226 33.3544 206.188 34.4569C208.16 35.5678 210.113 36.7084 212.065 37.8537C213.876 38.9129 215.702 39.9422 217.535 40.9613C219.608 42.1145 221.656 43.2998 223.684 44.5295C226.461 46.2097 229.283 47.8136 232.098 49.43C234.035 50.5436 235.972 51.6586 237.906 52.779C238.329 53.0243 238.753 53.2693 239.177 53.5136C248.04 58.6331 255.378 65.6736 260.348 74.68C260.498 74.946 260.498 74.946 260.651 75.2173C263.511 80.3038 265.449 85.7169 266.629 91.43C266.692 91.7172 266.755 92.0043 266.819 92.3001C267.706 96.5551 267.923 100.858 267.913 105.194C267.914 105.647 267.915 106.101 267.916 106.555C267.918 107.784 267.918 109.014 267.917 110.244C267.916 111.577 267.918 112.91 267.92 114.242C267.923 116.847 267.924 119.452 267.923 122.057C267.923 124.176 267.923 126.296 267.924 128.415C267.925 128.718 267.925 129.02 267.925 129.332C267.925 129.947 267.925 130.563 267.926 131.178C267.928 136.935 267.928 142.692 267.926 148.449C267.925 153.703 267.928 158.957 267.933 164.211C267.938 169.62 267.94 175.029 267.939 180.438C267.938 183.469 267.939 186.501 267.942 189.532C267.945 192.112 267.946 194.693 267.943 197.273C267.941 198.587 267.941 199.901 267.944 201.215C267.958 207.707 267.904 214.108 266.379 220.461C266.314 220.741 266.249 221.022 266.182 221.31C265.382 224.686 264.381 227.845 262.833 230.955C262.594 231.439 262.361 231.926 262.129 232.413C257.671 241.696 250.692 248.787 241.802 253.916C241.031 254.364 240.268 254.828 239.504 255.289C238.4 255.954 237.291 256.611 236.179 257.261C234.133 258.457 232.106 259.682 230.082 260.914C227.086 262.74 224.075 264.538 221.057 266.325C220.816 266.468 220.816 266.468 220.57 266.613C220.258 266.798 219.947 266.982 219.635 267.165C218.945 267.573 218.259 267.985 217.578 268.409C217.241 268.619 217.241 268.619 216.897 268.833C216.704 268.956 216.511 269.078 216.313 269.204C216.159 269.278 216.006 269.353 215.848 269.43C215.683 269.348 215.518 269.265 215.348 269.18C215.608 268.99 215.867 268.799 216.135 268.603C218.127 267.132 220.056 265.645 221.848 263.93C222 263.788 222.152 263.646 222.309 263.499C233.436 252.802 240.025 235.303 240.377 220.087C240.429 217.229 240.424 214.37 240.424 211.512C240.425 210.218 240.428 208.923 240.431 207.629C240.436 204.809 240.438 201.989 240.44 199.169C240.44 197.403 240.442 195.637 240.444 193.871C240.449 188.966 240.453 184.061 240.454 179.156C240.454 178.687 240.454 178.687 240.454 178.208C240.454 177.574 240.454 176.94 240.454 176.307C240.454 175.992 240.454 175.677 240.454 175.353C240.454 175.038 240.454 174.723 240.454 174.399C240.455 169.299 240.462 164.199 240.471 159.099C240.481 153.842 240.486 148.586 240.486 143.329C240.486 140.386 240.488 137.443 240.495 134.5C240.501 131.994 240.503 129.487 240.499 126.981C240.498 125.707 240.498 124.432 240.504 123.158C240.54 114.511 240.044 105.829 236.848 97.68C236.684 97.2469 236.684 97.2469 236.517 96.805C233.86 89.9844 230.08 83.7987 225.098 78.43C224.88 78.1951 224.88 78.1951 224.657 77.9554C221.096 74.1626 217.075 71.2927 212.598 68.68C212.12 68.3988 211.642 68.1176 211.164 67.8363C208.564 66.31 205.951 64.8065 203.331 63.3149C201.664 62.3642 200.005 61.3992 198.348 60.43C196.277 59.2191 194.201 58.0197 192.116 56.8324C190.079 55.6711 188.048 54.4984 186.017 53.325C184.282 52.3228 182.543 51.3275 180.801 50.3363C179.358 49.5146 177.923 48.6824 176.504 47.8207C174.743 46.7526 172.951 45.7433 171.157 44.7337C168.484 43.2288 165.829 41.6938 163.175 40.1579C162.351 39.6818 161.527 39.2066 160.702 38.7318C158.09 37.2271 155.481 35.7177 152.879 34.1957C147.862 31.2626 142.807 28.3921 137.742 25.5431C137.129 25.1979 136.519 24.8504 135.908 24.5023C132.031 22.3025 128.066 20.3854 123.848 18.93C123.594 18.8411 123.341 18.7521 123.079 18.6605C114.004 15.6712 101.459 14.242 92.5509 18.5209C92.0978 18.68 92.0978 18.68 91.3478 18.43C91.479 18.3525 91.6103 18.275 91.7455 18.1952C92.389 17.8152 93.0325 17.4351 93.6759 17.055C93.9212 16.9102 94.1665 16.7653 94.4192 16.616C95.7819 15.8108 97.144 15.0046 98.505 14.1966C101.979 12.1342 105.457 10.0783 108.955 8.05466C109.522 7.72403 110.086 7.38841 110.65 7.05015C119.726 1.66642 131.152 -0.801977 141.598 1.18003Z" fill="#2E7D32"/>
</svg>
